<svg width="25" height="26" viewBox="0 0 25 26" fill="none" xmlns="http://www.w3.org/2000/svg">
<g clip-path="url(#clip0_65_1740)">
<path d="M18 3C18 2.86739 18.0527 2.74021 18.1464 2.64645C18.2402 2.55268 18.3674 2.5 18.5 2.5C18.6326 2.5 18.7598 2.55268 18.8536 2.64645C18.9473 2.74021 19 2.86739 19 3V5.5H21.5C21.6326 5.5 21.7598 5.55268 21.8536 5.64645C21.9473 5.74021 22 5.86739 22 6C22 6.13261 21.9473 6.25979 21.8536 6.35355C21.7598 6.44732 21.6326 6.5 21.5 6.5H19V9C19 9.13261 18.9473 9.25979 18.8536 9.35355C18.7598 9.44732 18.6326 9.5 18.5 9.5C18.3674 9.5 18.2402 9.44732 18.1464 9.35355C18.0527 9.25979 18 9.13261 18 9V6.5H15.5C15.3674 6.5 15.2402 6.44732 15.1464 6.35355C15.0527 6.25979 15 6.13261 15 6C15 5.86739 15.0527 5.74021 15.1464 5.64645C15.2402 5.55268 15.3674 5.5 15.5 5.5H18V3ZM7 7.5C7 7.23478 7.10536 6.98043 7.29289 6.79289C7.48043 6.60536 7.73478 6.5 8 6.5H11.5C11.6326 6.5 11.7598 6.44732 11.8536 6.35355C11.9473 6.25979 12 6.13261 12 6C12 5.86739 11.9473 5.74021 11.8536 5.64645C11.7598 5.55268 11.6326 5.5 11.5 5.5H8C7.46957 5.5 6.96086 5.71071 6.58579 6.08579C6.21071 6.46086 6 6.96957 6 7.5V21.5C6 21.5929 6.02586 21.6839 6.07467 21.7629C6.12349 21.8419 6.19334 21.9057 6.27639 21.9472C6.35945 21.9887 6.45242 22.0063 6.5449 21.998C6.63738 21.9896 6.72572 21.9557 6.8 21.9L12.5 17.5L18.2 21.9C18.2743 21.9557 18.3626 21.9896 18.4551 21.998C18.5476 22.0063 18.6406 21.9887 18.7236 21.9472C18.8067 21.9057 18.8765 21.8419 18.9253 21.7629C18.9741 21.6839 19 21.5929 19 21.5V13C19 12.8674 18.9473 12.7402 18.8536 12.6464C18.7598 12.5527 18.6326 12.5 18.5 12.5C18.3674 12.5 18.2402 12.5527 18.1464 12.6464C18.0527 12.7402 18 12.8674 18 13V20.48L12.8 16.48C12.7135 16.4151 12.6082 16.38 12.5 16.38C12.3918 16.38 12.2865 16.4151 12.2 16.48L7 20.48V7.5Z" fill="#757575"/>
</g>
<defs>
<clipPath id="clip0_65_1740">
<rect width="25" height="25" fill="white" transform="translate(0 0.5)"/>
</clipPath>
</defs>
</svg>
