<svg width="44" height="32" viewBox="0 0 44 32" fill="none" xmlns="http://www.w3.org/2000/svg">
<g clip-path="url(#clip0_65_1734)">
<path d="M18.55 20.8C19.2732 20.118 19.8459 19.2925 20.2316 18.3765C20.6174 17.4604 20.8076 16.4738 20.79 15.48C20.79 11.36 17.26 8 12.74 8C8.22005 8 4.55005 11.36 4.55005 15.48C4.55005 19.61 8.22005 22.96 12.75 22.96C13.5542 22.9613 14.3548 22.8537 15.13 22.64C15.36 22.84 15.61 23.03 15.88 23.2C16.94 23.89 18.08 24.24 19.28 24.24C19.5 24.24 19.68 24.13 19.76 23.95C19.8019 23.868 19.8203 23.7761 19.8132 23.6844C19.8062 23.5926 19.7739 23.5046 19.72 23.43C19.1362 22.6468 18.7394 21.7403 18.56 20.78V20.8H18.55ZM15.43 21.86L15.37 21.64L15.05 21.74C14.3035 21.9613 13.5287 22.0725 12.75 22.07C8.72005 22.07 5.45005 19.11 5.45005 15.48C5.45005 11.85 8.72005 8.9 12.75 8.9C16.75 8.9 19.85 11.86 19.85 15.5C19.85 17.3 19.25 18.97 17.83 20.22L17.63 20.38V20.64L17.65 20.94C17.7876 21.7888 18.0863 22.6035 18.53 23.34C17.7515 23.2191 17.01 22.9253 16.36 22.48C16.08 22.31 15.64 22.1 15.42 21.89L15.43 21.87V21.86Z" fill="#757575"/>
</g>
<path d="M33.2686 11.5455V21H32.1237V12.7457H32.0683L29.7601 14.2784V13.1151L32.1237 11.5455H33.2686ZM39.0715 21.1293C38.376 21.1293 37.7835 20.94 37.2942 20.5614C36.8048 20.1798 36.4309 19.6274 36.1724 18.9041C35.9139 18.1778 35.7846 17.3007 35.7846 16.2727C35.7846 15.2509 35.9139 14.3784 36.1724 13.6552C36.434 12.9289 36.8095 12.3749 37.2988 11.9933C37.7912 11.6085 38.3821 11.4162 39.0715 11.4162C39.7609 11.4162 40.3503 11.6085 40.8396 11.9933C41.3321 12.3749 41.7075 12.9289 41.9661 13.6552C42.2277 14.3784 42.3585 15.2509 42.3585 16.2727C42.3585 17.3007 42.2292 18.1778 41.9707 18.9041C41.7122 19.6274 41.3382 20.1798 40.8489 20.5614C40.3595 20.94 39.7671 21.1293 39.0715 21.1293ZM39.0715 20.1136C39.7609 20.1136 40.2964 19.7812 40.6781 19.1165C41.0597 18.4517 41.2505 17.5038 41.2505 16.2727C41.2505 15.4541 41.1628 14.757 40.9874 14.1815C40.815 13.6059 40.5657 13.1674 40.2395 12.8658C39.9163 12.5642 39.527 12.4134 39.0715 12.4134C38.3883 12.4134 37.8543 12.7504 37.4696 13.4244C37.0849 14.0953 36.8926 15.0447 36.8926 16.2727C36.8926 17.0914 36.9787 17.7869 37.1511 18.3594C37.3234 18.9318 37.5712 19.3673 37.8943 19.6658C38.2206 19.9644 38.613 20.1136 39.0715 20.1136Z" fill="#757575"/>
<defs>
<clipPath id="clip0_65_1734">
<rect width="24" height="24" fill="white" transform="translate(0.550049 4)"/>
</clipPath>
</defs>
</svg>
