<svg width="41" height="33" viewBox="0 0 41 33" fill="none" xmlns="http://www.w3.org/2000/svg">
<g clip-path="url(#clip0_65_1644)">
<path d="M18 21.2697C18.7231 20.5877 19.2959 19.7623 19.6816 18.8462C20.0673 17.9301 20.2575 16.9436 20.24 15.9497C20.24 11.8297 16.71 8.46973 12.19 8.46973C7.67 8.46973 4 11.8297 4 15.9497C4 20.0797 7.67 23.4297 12.2 23.4297C13.0041 23.4311 13.8048 23.3234 14.58 23.1097C14.81 23.3097 15.06 23.4997 15.33 23.6697C16.39 24.3597 17.53 24.7097 18.73 24.7097C18.95 24.7097 19.13 24.5997 19.21 24.4197C19.2518 24.3378 19.2702 24.2458 19.2632 24.1541C19.2561 24.0624 19.2239 23.9743 19.17 23.8997C18.5862 23.1165 18.1894 22.21 18.01 21.2497V21.2697H18ZM14.88 22.3297L14.82 22.1097L14.5 22.2097C13.7535 22.4311 12.9786 22.5422 12.2 22.5397C8.17 22.5397 4.9 19.5797 4.9 15.9497C4.9 12.3197 8.17 9.36973 12.2 9.36973C16.2 9.36973 19.3 12.3297 19.3 15.9697C19.3 17.7697 18.7 19.4397 17.28 20.6897L17.08 20.8497V21.1097L17.1 21.4097C17.2376 22.2585 17.5363 23.0732 17.98 23.8097C17.2015 23.6889 16.46 23.395 15.81 22.9497C15.53 22.7797 15.09 22.5697 14.87 22.3597L14.88 22.3397V22.3297Z" fill="#757575"/>
</g>
<path d="M31.4325 11.7425V20.4697H30.3757V12.8504H30.3246L28.1939 14.2652V13.1913L30.3757 11.7425H31.4325ZM36.7891 20.589C36.147 20.589 35.6001 20.4143 35.1484 20.0649C34.6967 19.7126 34.3516 19.2027 34.1129 18.5351C33.8743 17.8646 33.755 17.055 33.755 16.1061C33.755 15.1629 33.8743 14.3575 34.1129 13.6899C34.3544 13.0194 34.701 12.5081 35.1527 12.1558C35.6072 11.8007 36.1527 11.6231 36.7891 11.6231C37.4254 11.6231 37.9695 11.8007 38.4212 12.1558C38.8757 12.5081 39.2223 13.0194 39.4609 13.6899C39.7024 14.3575 39.8232 15.1629 39.8232 16.1061C39.8232 17.055 39.7038 17.8646 39.4652 18.5351C39.2266 19.2027 38.8814 19.7126 38.4297 20.0649C37.978 20.4143 37.4311 20.589 36.7891 20.589ZM36.7891 19.6515C37.4254 19.6515 37.9197 19.3447 38.272 18.7311C38.6243 18.1175 38.8004 17.2425 38.8004 16.1061C38.8004 15.3504 38.7195 14.7069 38.5575 14.1757C38.3984 13.6444 38.1683 13.2396 37.8672 12.9612C37.5689 12.6828 37.2095 12.5436 36.7891 12.5436C36.1584 12.5436 35.6655 12.8547 35.3104 13.4768C34.9553 14.0961 34.7777 14.9726 34.7777 16.1061C34.7777 16.8618 34.8572 17.5038 35.0163 18.0322C35.1754 18.5606 35.4041 18.9626 35.7024 19.2382C36.0036 19.5138 36.3658 19.6515 36.7891 19.6515Z" fill="#757575"/>
<defs>
<clipPath id="clip0_65_1644">
<rect width="24" height="24" fill="white" transform="translate(0 4.46973)"/>
</clipPath>
</defs>
</svg>
