<svg width="52" height="24" viewBox="0 0 52 24" fill="none" xmlns="http://www.w3.org/2000/svg">
<path d="M31.9716 7.27273V16H30.9148V8.38068H30.8636L28.733 9.79545V8.72159L30.9148 7.27273H31.9716ZM34.7159 16.0682C34.5057 16.0682 34.3253 15.9929 34.1747 15.8423C34.0241 15.6918 33.9489 15.5114 33.9489 15.3011C33.9489 15.0909 34.0241 14.9105 34.1747 14.7599C34.3253 14.6094 34.5057 14.5341 34.7159 14.5341C34.9261 14.5341 35.1065 14.6094 35.2571 14.7599C35.4077 14.9105 35.483 15.0909 35.483 15.3011C35.483 15.4403 35.4474 15.5682 35.3764 15.6847C35.3082 15.8011 35.2159 15.8949 35.0994 15.9659C34.9858 16.0341 34.858 16.0682 34.7159 16.0682ZM37.2706 16V15.233L40.1513 12.0795C40.4893 11.7102 40.7678 11.3892 40.9865 11.1165C41.2053 10.8409 41.3672 10.5824 41.4723 10.3409C41.5803 10.0966 41.6342 9.84091 41.6342 9.57386C41.6342 9.26705 41.5604 9.00142 41.4126 8.77699C41.2678 8.55256 41.0689 8.37926 40.8161 8.2571C40.5632 8.13494 40.2791 8.07386 39.9638 8.07386C39.6286 8.07386 39.3359 8.14347 39.0859 8.28267C38.8388 8.41903 38.647 8.6108 38.5107 8.85795C38.3771 9.10511 38.3104 9.39489 38.3104 9.72727H37.3047C37.3047 9.21591 37.4226 8.76705 37.6584 8.38068C37.8942 7.99432 38.2152 7.69318 38.6214 7.47727C39.0305 7.26136 39.4893 7.15341 39.9979 7.15341C40.5092 7.15341 40.9624 7.26136 41.3572 7.47727C41.7521 7.69318 42.0618 7.98437 42.2862 8.35085C42.5107 8.71733 42.6229 9.125 42.6229 9.57386C42.6229 9.89489 42.5646 10.2088 42.4482 10.5156C42.3345 10.8196 42.1357 11.1591 41.8516 11.5341C41.5703 11.9062 41.1797 12.3608 40.6797 12.8977L38.7195 14.9943V15.0625H42.7763V16H37.2706ZM44.6896 16V7.27273H45.7464V11.6023H45.8487L49.7692 7.27273H51.1499L47.4851 11.2102L51.1499 16H49.8714L46.8374 11.9432L45.7464 13.1705V16H44.6896Z" fill="#757575"/>
<g clip-path="url(#clip0_65_1729)">
<path fill-rule="evenodd" clip-rule="evenodd" d="M11.3701 0.830078L12.0001 3.28008L12.6301 0.830078H11.3701ZM13.9201 3.95008L15.4401 1.85008L14.2601 1.45008L13.9201 3.95008ZM8.59012 1.84008L10.1101 3.95008L9.77012 1.45008L8.59012 1.85008V1.84008ZM18.5201 18.9201C17.8338 19.6622 16.9043 20.134 15.9001 20.2501L16.3101 19.8801C18.7001 17.4801 19.1701 14.9301 17.7101 12.2501L16.8001 10.6501L16.0001 8.98008C15.7501 8.42008 15.8101 8.00008 16.2101 7.69008C16.2877 7.63137 16.3767 7.58949 16.4714 7.56711C16.5661 7.54472 16.6644 7.54233 16.7601 7.56008C17.0401 7.61008 17.3001 7.79008 17.4801 8.06008L19.8501 12.2201C20.8201 13.8401 20.9901 16.4501 18.5201 18.9201ZM7.52012 18.4801L3.37012 14.3301C3.23496 14.1712 3.16457 13.9673 3.17296 13.7589C3.18135 13.5505 3.2679 13.3528 3.41539 13.2053C3.56288 13.0579 3.7605 12.9713 3.96891 12.9629C4.17732 12.9545 4.38126 13.0249 4.54012 13.1601L6.70012 15.3201C6.77185 15.3689 6.85847 15.391 6.94484 15.3825C7.03121 15.374 7.11183 15.3353 7.1726 15.2734C7.23337 15.2114 7.27043 15.1301 7.27729 15.0435C7.28414 14.957 7.26037 14.8708 7.21012 14.8001L5.06012 12.6401L3.60012 11.2001C3.46496 11.0412 3.39457 10.8373 3.40296 10.6289C3.41135 10.4205 3.4979 10.2228 3.64539 10.0753C3.79288 9.92786 3.9905 9.84131 4.19891 9.83292C4.40732 9.82453 4.61126 9.89492 4.77012 10.0301L8.20012 13.4701C8.23373 13.5052 8.27409 13.5331 8.31877 13.5522C8.36345 13.5712 8.41154 13.5811 8.46012 13.5811C8.50871 13.5811 8.55679 13.5712 8.60147 13.5522C8.64616 13.5331 8.68652 13.5052 8.72012 13.4701C8.75521 13.4365 8.78314 13.3961 8.80221 13.3514C8.82129 13.3067 8.83112 13.2587 8.83112 13.2101C8.83112 13.1615 8.82129 13.1134 8.80221 13.0687C8.78314 13.024 8.75521 12.9837 8.72012 12.9501L5.29012 9.51008L4.32012 8.54008C4.16864 8.38502 4.08384 8.17685 4.08384 7.96008C4.08384 7.74331 4.16864 7.53514 4.32012 7.38008C4.47687 7.22796 4.6867 7.14288 4.90512 7.14288C5.12354 7.14288 5.33338 7.22796 5.49012 7.38008L6.46012 8.35008L9.90012 11.7801C9.93357 11.8136 9.97331 11.8403 10.0171 11.8584C10.0608 11.8766 10.1077 11.886 10.1551 11.886C10.2025 11.886 10.2494 11.8766 10.2932 11.8584C10.3369 11.8403 10.3767 11.8136 10.4101 11.7801C10.4785 11.7108 10.5169 11.6174 10.5169 11.5201C10.5169 11.4227 10.4785 11.3293 10.4101 11.2601L6.98012 7.83008C6.86379 7.71512 6.78448 7.568 6.75241 7.40762C6.72033 7.24724 6.73695 7.08094 6.80012 6.93008C6.86175 6.77915 6.96698 6.65002 7.10235 6.55918C7.23772 6.46834 7.3971 6.41991 7.56012 6.42008C7.78012 6.42008 7.99012 6.51008 8.14012 6.66008L13.9401 12.4501C14.0033 12.5022 14.082 12.5318 14.1639 12.5344C14.2457 12.5369 14.3261 12.5122 14.3924 12.4642C14.4588 12.4162 14.5073 12.3475 14.5304 12.2689C14.5535 12.1904 14.5499 12.1064 14.5201 12.0301L13.4001 9.67008C13.1401 9.11008 13.2001 8.69008 13.6001 8.38008C13.6777 8.32137 13.7667 8.27949 13.8614 8.2571C13.9561 8.23472 14.0544 8.23233 14.1501 8.25008C14.4301 8.30008 14.7001 8.48008 14.8801 8.75008L17.0801 12.6101C18.3801 14.9901 17.9501 17.2001 15.7901 19.3601C15.2596 19.9172 14.5991 20.334 13.8678 20.5732C13.1365 20.8123 12.3574 20.8662 11.6001 20.7301C10.0447 20.4156 8.62367 19.6301 7.53012 18.4801H7.52012ZM10.7501 5.98008L12.8701 8.09008C12.4601 8.59008 12.4001 9.26008 12.7401 9.99008L12.9601 10.4501L9.44012 6.92008C9.37919 6.80951 9.34495 6.68623 9.34012 6.56008C9.34012 6.33008 9.43012 6.13008 9.58012 5.97008C9.73805 5.82026 9.94744 5.73674 10.1651 5.73674C10.3828 5.73674 10.5922 5.82026 10.7501 5.97008V5.98008ZM18.1101 7.68008C17.974 7.46287 17.7945 7.27613 17.5829 7.13158C17.3712 6.98703 17.132 6.88779 16.8801 6.84008C16.6849 6.80556 16.4847 6.81173 16.2919 6.85819C16.0992 6.90465 15.9182 6.9904 15.7601 7.11008C15.4601 7.35008 15.2601 7.66008 15.1801 8.00008C14.9301 7.75008 14.6101 7.60008 14.2701 7.53008C13.9901 7.49008 13.7101 7.53008 13.4501 7.63008L11.2701 5.45008C10.9778 5.1594 10.5823 4.99624 10.1701 4.99624C9.75789 4.99624 9.36242 5.1594 9.07012 5.45008C8.87012 5.65008 8.74012 5.89008 8.67012 6.15008C8.47356 5.95135 8.22721 5.8091 7.95684 5.73817C7.68647 5.66725 7.40202 5.67028 7.13322 5.74693C6.86442 5.82359 6.62115 5.97105 6.42886 6.17391C6.23656 6.37677 6.1023 6.62757 6.04012 6.90008C5.74673 6.60449 5.34965 6.43495 4.93324 6.42748C4.51683 6.42002 4.11393 6.5752 3.81012 6.86008C3.51945 7.15238 3.35629 7.54785 3.35629 7.96008C3.35629 8.37231 3.51945 8.76778 3.81012 9.06008C3.57012 9.16008 3.31012 9.30008 3.09012 9.51008C2.79945 9.80238 2.63629 10.1979 2.63629 10.6101C2.63629 11.0223 2.79945 11.4178 3.09012 11.7101L3.61012 12.2301C3.34155 12.2944 3.09485 12.4288 2.89525 12.6197C2.69564 12.8105 2.55028 13.0509 2.474 13.3164C2.39773 13.5818 2.39329 13.8627 2.46113 14.1304C2.52896 14.3981 2.66665 14.643 2.86012 14.8401L7.00012 19.0001C8.20547 20.2587 9.77009 21.1143 11.4801 21.4501C12.6245 21.6658 13.8082 21.4897 14.8401 20.9501C15.6098 21.0497 16.3921 20.9648 17.1224 20.7022C17.8528 20.4396 18.5101 20.007 19.0401 19.4401C21.7901 16.6701 21.5801 13.7001 20.4701 11.8501L18.1001 7.68008H18.1101Z" fill="#757575"/>
</g>
<defs>
<clipPath id="clip0_65_1729">
<rect width="24" height="24" fill="white"/>
</clipPath>
</defs>
</svg>
