<svg width="24" height="24" viewBox="0 0 24 24" fill="none" xmlns="http://www.w3.org/2000/svg">
<g clip-path="url(#clip0_65_1743)">
<path fill-rule="evenodd" clip-rule="evenodd" d="M15.22 4.93C15.1897 4.98136 15.1488 5.02568 15.1 5.06H15.11C15.0254 5.11914 14.923 5.14739 14.82 5.14C14.7086 5.13005 14.6034 5.08446 14.52 5.01L12.5 3V10.07C12.5 10.2026 12.4473 10.3298 12.3536 10.4236C12.2598 10.5173 12.1326 10.57 12 10.57C11.8674 10.57 11.7402 10.5173 11.6464 10.4236C11.5527 10.3298 11.5 10.2026 11.5 10.07V3.02L9.5 5.02C9.42432 5.09163 9.32612 5.13478 9.22216 5.14208C9.11821 5.14937 9.01495 5.12036 8.93 5.06H8.91C8.86293 5.02482 8.82419 4.9797 8.79654 4.92785C8.76888 4.87599 8.753 4.81869 8.75 4.76C8.74252 4.7026 8.74759 4.64426 8.76486 4.58902C8.78212 4.53377 8.81117 4.48293 8.85 4.44L11.65 1.64C11.7435 1.54839 11.8691 1.49707 12 1.49707C12.1309 1.49707 12.2565 1.54839 12.35 1.64L15.15 4.44C15.2143 4.50449 15.2559 4.58812 15.2685 4.67831C15.2811 4.76849 15.2641 4.86033 15.22 4.94V4.93ZM16 7.07H17.5C18.0304 7.07 18.5391 7.28071 18.9142 7.65579C19.2893 8.03086 19.5 8.53957 19.5 9.07V19.07C19.5 19.6004 19.2893 20.1091 18.9142 20.4842C18.5391 20.8593 18.0304 21.07 17.5 21.07H6.5C5.96957 21.07 5.46086 20.8593 5.08579 20.4842C4.71071 20.1091 4.5 19.6004 4.5 19.07V9.07C4.5 8.53957 4.71071 8.03086 5.08579 7.65579C5.46086 7.28071 5.96957 7.07 6.5 7.07H8C8.13046 7.06922 8.25607 7.11946 8.35 7.21C8.45 7.31 8.5 7.43 8.5 7.56C8.49812 7.69188 8.44421 7.81768 8.35 7.91C8.25769 8.00421 8.13188 8.05812 8 8.06H6.4C5.9 8.06 5.5 8.46 5.5 8.96V19.16C5.5 19.3987 5.59482 19.6276 5.7636 19.7964C5.93239 19.9652 6.16131 20.06 6.4 20.06H17.6C18.1 20.06 18.5 19.66 18.5 19.16V8.96C18.5 8.46 18.1 8.06 17.6 8.06H16C15.8674 8.06 15.7402 8.00732 15.6464 7.91355C15.5527 7.81978 15.5 7.69261 15.5 7.56C15.5 7.42739 15.5527 7.30021 15.6464 7.20645C15.7402 7.11268 15.8674 7.06 16 7.06V7.07Z" fill="#757575"/>
</g>
<defs>
<clipPath id="clip0_65_1743">
<rect width="24" height="24" fill="white"/>
</clipPath>
</defs>
</svg>
