<svg width="8" height="6" viewBox="0 0 8 6" fill="none" xmlns="http://www.w3.org/2000/svg">
<path fill-rule="evenodd" clip-rule="evenodd" d="M1.03014 1.11996C0.953108 1.06219 0.857825 1.03414 0.761782 1.04097C0.665738 1.04779 0.575379 1.08903 0.507295 1.15712C0.43921 1.2252 0.397969 1.31556 0.391144 1.41161C0.384318 1.50765 0.412366 1.60293 0.470137 1.67996L3.95014 5.16796L7.43014 1.67996C7.47598 1.64558 7.51391 1.60174 7.54134 1.55142C7.56877 1.50111 7.58507 1.44548 7.58913 1.38832C7.59319 1.33115 7.58493 1.27378 7.56489 1.22009C7.54485 1.1664 7.5135 1.11764 7.47298 1.07712C7.43246 1.03659 7.3837 1.00525 7.33001 0.985213C7.27632 0.965173 7.21895 0.956905 7.16178 0.960967C7.10462 0.96503 7.04899 0.981329 6.99868 1.00876C6.94836 1.03619 6.90452 1.07411 6.87014 1.11996L3.95014 4.03196L1.03014 1.11996Z" fill="#757575"/>
</svg>
